<svg xmlns="http://www.w3.org/2000/svg" width="48" height="48" viewBox="0 0 48 48"><title>assets</title><rect width="48" height="48" fill="none"/><path d="M23,38h2v2H23V38M24,8a8.852,8.852,0,0,1,2.383.32,9.037,9.037,0,0,1,6.3,6.3A8.852,8.852,0,0,1,33,17a7.7,7.7,0,0,1-.344,2.375,8.417,8.417,0,0,1-.906,1.945,10.525,10.525,0,0,1-1.281,1.633Q29.75,23.7,29,24.406t-1.469,1.4a10.944,10.944,0,0,0-1.281,1.476,7.318,7.318,0,0,0-.906,1.688A5.693,5.693,0,0,0,25,31v3H23V31a7.7,7.7,0,0,1,.344-2.375,8.417,8.417,0,0,1,.906-1.945,10.185,10.185,0,0,1,1.281-1.625q.719-.742,1.469-1.446T28.469,22.2a11.386,11.386,0,0,0,1.281-1.484,7.318,7.318,0,0,0,.906-1.688A5.693,5.693,0,0,0,31,17a6.751,6.751,0,0,0-.555-2.727,7.061,7.061,0,0,0-3.718-3.718,6.977,6.977,0,0,0-5.454,0,7.061,7.061,0,0,0-3.718,3.718A6.751,6.751,0,0,0,17,17H15a8.852,8.852,0,0,1,.32-2.383,9.037,9.037,0,0,1,6.3-6.3A8.852,8.852,0,0,1,24,8Z" fill="#404040"/></svg>